<?xml version="1.0" encoding="UTF-8"?>
<svg version="1.1" xmlns="http://www.w3.org/2000/svg" width="100" height="100">
<path d="M0 0 C11.61044611 7.87971198 19.15935154 19.2066008 22.3125 32.875 C23.89717002 49.02312243 21.49670209 62.85642305 11.3125 75.875 C2.63554281 85.40912627 -9.20905927 92.57459012 -22.32421875 93.2109375 C-38.27522126 93.49821567 -51.00429952 90.68762883 -63.1640625 79.62109375 C-73.96142781 68.37233356 -78.11642811 55.7894671 -78.05102539 40.50610352 C-77.76224063 26.46859694 -72.13689804 14.79262043 -62 5.0625 C-44.23015437 -10.05270406 -19.90521865 -11.59766872 0 0 Z " fill="#00FD87" transform="translate(77.6875,7.125)"/>
<path d="M0 0 C4.43090471 1.20842856 6.98112756 2.51668565 10 6 C9.46375 6.9075 8.9275 7.815 8.375 8.75 C6.7050013 11.74484807 6.7050013 11.74484807 7.5625 13.9375 C8.036875 14.618125 8.51125 15.29875 9 16 C12.23969326 21.05011009 13.50510892 23.81241575 13 30 C9.37 30 5.74 30 2 30 C1.12109375 27.41210938 1.12109375 27.41210938 0.2421875 24.82421875 C-1.68513852 21.99383746 -3.83779315 21.22360452 -7 20 C-10.67877287 19.49158692 -10.67877287 19.49158692 -14.5 19.5625 C-15.7684375 19.54316406 -17.036875 19.52382813 -18.34375 19.50390625 C-22.65971436 20.08951253 -24.74447249 21.12268818 -28 24 C-28.66 25.98 -29.32 27.96 -30 30 C-21.75 30 -13.5 30 -5 30 C-7.89756098 38.69268293 -7.89756098 38.69268293 -11 42 C-14.27792805 42.73502286 -17.41208263 42.56728771 -20.75 42.375 C-21.63816406 42.34792969 -22.52632812 42.32085937 -23.44140625 42.29296875 C-25.63008395 42.22236624 -27.81379568 42.12385527 -30 42 C-28.24146793 47.03128445 -28.24146793 47.03128445 -24.77734375 50.9140625 C-21.23936939 52.2974055 -18.35721409 52.39792879 -14.5625 52.375 C-12.64630859 52.38660156 -12.64630859 52.38660156 -10.69140625 52.3984375 C-6.73623987 51.97153065 -4.34134312 51.13163057 -1 49 C0.50560748 47.25549662 0.50560748 47.25549662 1.375 45.3125 C1.91125 44.219375 2.4475 43.12625 3 42 C6.3 42 9.6 42 13 42 C12.54344713 49.53312231 11.3464006 53.83448592 5.6875 59.1875 C-1.83596273 64.26146324 -8.04492139 64.41926613 -16.88085938 64.17578125 C-19.42846653 64.20257802 -21.55582623 64.27216669 -24 65 C-26.09256901 67.23878361 -26.83451576 69.09778008 -28 72 C-32.43090471 70.79157144 -34.98112756 69.48331435 -38 66 C-37.46375 65.0925 -36.9275 64.185 -36.375 63.25 C-34.65243338 60.22820969 -34.65243338 60.22820969 -35.75244141 58.05297852 C-36.57698816 56.69610695 -37.41505417 55.34734931 -38.26708984 54.00756836 C-41.95157847 48.12616418 -42.80383915 43.44092886 -42.625 36.5625 C-42.61098145 35.63888672 -42.59696289 34.71527344 -42.58251953 33.76367188 C-42.30608803 25.99058314 -40.83869294 20.29216491 -35.578125 14.41015625 C-28.23432347 7.59937257 -20.52532649 7.56502001 -11.11914062 7.82421875 C-8.57153347 7.79742198 -6.44417377 7.72783331 -4 7 C-1.90743099 4.76121639 -1.16548424 2.90221992 0 0 Z " fill="#001825" transform="translate(64,14)"/>
</svg>
