<?xml version="1.0" encoding="UTF-8"?>
<svg version="1.1" xmlns="http://www.w3.org/2000/svg" width="250" height="250">
<path d="M0 0 C17.16 0 34.32 0 52 0 C52 0.66 52 1.32 52 2 C52.92619141 2.07347656 52.92619141 2.07347656 53.87109375 2.1484375 C59.73478159 2.66608422 65.27872775 3.61582123 71 5 C71 5.66 71 6.32 71 7 C72.258125 7.309375 73.51625 7.61875 74.8125 7.9375 C77.26177394 8.53978048 79.60265923 9.20088641 82 10 C82 10.66 82 11.32 82 12 C82.71027344 12.19335938 83.42054688 12.38671875 84.15234375 12.5859375 C85.07144531 12.84632812 85.99054688 13.10671875 86.9375 13.375 C87.85402344 13.63023438 88.77054688 13.88546875 89.71484375 14.1484375 C92 15 92 15 93 17 C94.97522846 18.04808041 96.97481509 19.0520411 99 20 C99 20.66 99 21.32 99 22 C99.7425 22.2475 100.485 22.495 101.25 22.75 C104.23088821 24.10494919 105.74251979 25.66969785 108 28 C108.62648437 28.29003906 109.25296875 28.58007812 109.8984375 28.87890625 C112.40450525 30.21578626 113.75048786 31.7606532 115.5625 33.9375 C117.62883371 36.39961255 119.7155226 38.74021966 122 41 C124.81488357 44.22681775 127.14428627 47.15602156 129 51 C129.474375 51.474375 129.94875 51.94875 130.4375 52.4375 C132.40865849 54.40865849 133.61397848 56.58952779 135 59 C135.66 59.99 136.32 60.98 137 62 C138 64.33333333 139 66.66666667 140 69 C140.99 70.485 140.99 70.485 142 72 C142.57605248 73.38199747 143.11703521 74.77905218 143.625 76.1875 C143.88539063 76.90292969 144.14578125 77.61835937 144.4140625 78.35546875 C144.70410156 79.16951172 144.70410156 79.16951172 145 80 C145.33 80 145.66 80 146 80 C147.98 89.405 147.98 89.405 150 99 C150.33 99 150.66 99 151 99 C151 116.16 151 133.32 151 151 C150.67 151 150.34 151 150 151 C149.88930176 151.56509277 149.77860352 152.13018555 149.66455078 152.71240234 C149.15927228 155.26823878 148.64228995 157.82156878 148.125 160.375 C147.95097656 161.26445312 147.77695313 162.15390625 147.59765625 163.0703125 C147.42363281 163.92109375 147.24960938 164.771875 147.0703125 165.6484375 C146.91320801 166.43395996 146.75610352 167.21948242 146.59423828 168.02880859 C146 170 146 170 144 172 C143.46894316 173.44024839 142.99550314 174.90230007 142.5625 176.375 C141.470949 179.83157818 140.25849632 182.15233073 138 185 C137.67 186.010625 137.34 187.02125 137 188.0625 C135.99104036 191.02631895 135.22984783 191.95597282 133 194 C132.67 194.66 132.34 195.32 132 196 C130.92246689 198.15506622 129.72797075 199.34114808 128 201 C126.25415934 203.20127736 124.76033453 205.39944245 123.3125 207.8125 C120.80732133 211.26558411 118.08444793 213.69483991 114.8046875 216.38671875 C112.7757779 218.06481085 112.7757779 218.06481085 111 221 C109.67532254 221.6837045 108.34136367 222.34964186 107 223 C106.525625 223.495 106.05125 223.99 105.5625 224.5 C103.5926486 226.39105734 101.51884428 227.00571936 99 228 C98.67 228.66 98.34 229.32 98 230 C96.33333333 231 94.66666667 232 93 233 C92.67 233.66 92.34 234.32 92 235 C89.71484375 235.8515625 89.71484375 235.8515625 86.9375 236.625 C86.01839844 236.88539063 85.09929687 237.14578125 84.15234375 237.4140625 C83.08693359 237.70410156 83.08693359 237.70410156 82 238 C82 238.66 82 239.32 82 240 C80.54293274 240.50367757 79.08429904 241.00282556 77.625 241.5 C76.40683594 241.91765625 76.40683594 241.91765625 75.1640625 242.34375 C73 243 73 243 71 243 C71 243.66 71 244.32 71 245 C68.96040523 245.50838564 66.91820862 246.00633886 64.875 246.5 C63.16957031 246.91765625 63.16957031 246.91765625 61.4296875 247.34375 C58.18533302 247.96453765 55.29185543 248.12006768 52 248 C52 248.66 52 249.32 52 250 C34.84 250 17.68 250 0 250 C0 249.34 0 248.68 0 248 C-0.92619141 247.92652344 -0.92619141 247.92652344 -1.87109375 247.8515625 C-7.73478159 247.33391578 -13.27872775 246.38417877 -19 245 C-19 244.34 -19 243.68 -19 243 C-20.258125 242.690625 -21.51625 242.38125 -22.8125 242.0625 C-25.26177394 241.46021952 -27.60265923 240.79911359 -30 240 C-30 239.34 -30 238.68 -30 238 C-30.71027344 237.80664062 -31.42054687 237.61328125 -32.15234375 237.4140625 C-33.07144531 237.15367187 -33.99054688 236.89328125 -34.9375 236.625 C-35.85402344 236.36976563 -36.77054688 236.11453125 -37.71484375 235.8515625 C-40 235 -40 235 -41 233 C-42.97522846 231.95191959 -44.97481509 230.9479589 -47 230 C-47 229.34 -47 228.68 -47 228 C-48.11375 227.62875 -48.11375 227.62875 -49.25 227.25 C-52.23088821 225.89505081 -53.74251979 224.33030215 -56 222 C-56.62648437 221.70996094 -57.25296875 221.41992188 -57.8984375 221.12109375 C-60.40450525 219.78421374 -61.75048786 218.2393468 -63.5625 216.0625 C-65.62883371 213.60038745 -67.7155226 211.25978034 -70 209 C-72.81488357 205.77318225 -75.14428627 202.84397844 -77 199 C-77.474375 198.525625 -77.94875 198.05125 -78.4375 197.5625 C-80.40865849 195.59134151 -81.61397848 193.41047221 -83 191 C-83.66 190.01 -84.32 189.02 -85 188 C-86 185.66666667 -87 183.33333333 -88 181 C-88.66 180.01 -89.32 179.02 -90 178 C-90.57605248 176.61800253 -91.11703521 175.22094782 -91.625 173.8125 C-92.01558594 172.73935547 -92.01558594 172.73935547 -92.4140625 171.64453125 C-92.60742188 171.10183594 -92.80078125 170.55914062 -93 170 C-93.33 170 -93.66 170 -94 170 C-95.32 163.73 -96.64 157.46 -98 151 C-98.33 151 -98.66 151 -99 151 C-99 133.84 -99 116.68 -99 99 C-98.67 99 -98.34 99 -98 99 C-97.88930176 98.43490723 -97.77860352 97.86981445 -97.66455078 97.28759766 C-97.15927228 94.73176122 -96.64228995 92.17843122 -96.125 89.625 C-95.95097656 88.73554687 -95.77695313 87.84609375 -95.59765625 86.9296875 C-95.42363281 86.07890625 -95.24960938 85.228125 -95.0703125 84.3515625 C-94.91320801 83.56604004 -94.75610352 82.78051758 -94.59423828 81.97119141 C-94 80 -94 80 -92 78 C-91.46894316 76.55975161 -90.99550314 75.09769993 -90.5625 73.625 C-89.470949 70.16842182 -88.25849632 67.84766927 -86 65 C-85.67 63.989375 -85.34 62.97875 -85 61.9375 C-83.99104036 58.97368105 -83.22984783 58.04402718 -81 56 C-80.67 55.34 -80.34 54.68 -80 54 C-78.92246689 51.84493378 -77.72797075 50.65885192 -76 49 C-74.25415934 46.79872264 -72.76033453 44.60055755 -71.3125 42.1875 C-68.80732133 38.73441589 -66.08444793 36.30516009 -62.8046875 33.61328125 C-60.7757779 31.93518915 -60.7757779 31.93518915 -59 29 C-57.67532254 28.3162955 -56.34136367 27.65035814 -55 27 C-54.525625 26.505 -54.05125 26.01 -53.5625 25.5 C-51.5926486 23.60894266 -49.51884428 22.99428064 -47 22 C-46.67 21.34 -46.34 20.68 -46 20 C-44.33333333 19 -42.66666667 18 -41 17 C-40.67 16.34 -40.34 15.68 -40 15 C-37.71484375 14.1484375 -37.71484375 14.1484375 -34.9375 13.375 C-34.01839844 13.11460938 -33.09929687 12.85421875 -32.15234375 12.5859375 C-31.44207031 12.39257812 -30.73179688 12.19921875 -30 12 C-30 11.34 -30 10.68 -30 10 C-28.54293274 9.49632243 -27.08429904 8.99717444 -25.625 8.5 C-24.81289062 8.2215625 -24.00078125 7.943125 -23.1640625 7.65625 C-21 7 -21 7 -19 7 C-19 6.34 -19 5.68 -19 5 C-16.96040523 4.49161436 -14.91820862 3.99366114 -12.875 3.5 C-11.73804687 3.2215625 -10.60109375 2.943125 -9.4296875 2.65625 C-6.18533302 2.03546235 -3.29185543 1.87993232 0 2 C0 1.34 0 0.68 0 0 Z " fill="#006AFF" transform="translate(99,0)"/>
<path d="M0 0 C0 0.66 0 1.32 0 2 C0.70125 2.185625 1.4025 2.37125 2.125 2.5625 C7.2606064 5.1303032 10.70545668 9.78796042 13 15 C14.9299933 24.26396784 14.99611603 33.34174859 11 42 C10.34 42 9.68 42 9 42 C8.835 42.70125 8.67 43.4025 8.5 44.125 C5.33718771 50.18705689 -1.29294699 53.59447572 -7.4296875 56.203125 C-11.56379279 57.4848233 -15.78399276 57.90169584 -20.08203125 58.3125 C-23.58365258 59.13751386 -24.87424982 60.12338818 -27 63 C-27.55275233 65.17972998 -27.55275233 65.17972998 -27.375 67.4375 C-27.35566406 68.54931641 -27.35566406 68.54931641 -27.3359375 69.68359375 C-26.90816609 72.63322685 -26.63510347 74.45838838 -25 77 C-22.07207024 77.94673762 -19.50471049 78.56236888 -16.5 79.0625 C-14.85951105 79.38209263 -13.22016009 79.707585 -11.58203125 80.0390625 C-10.39601318 80.27737793 -10.39601318 80.27737793 -9.18603516 80.52050781 C-2.29796723 82.03135943 3.58384525 84.30173581 8 90 C8.8125 92.3125 8.8125 92.3125 9 94 C9.66 94 10.32 94 11 94 C15.36999744 101.4654123 15.21605549 110.68150443 13.3203125 118.97265625 C12.64049399 121.01534902 11.83542706 123.01586074 11 125 C10.34 125 9.68 125 9 125 C8.731875 125.804375 8.46375 126.60875 8.1875 127.4375 C7.795625 128.283125 7.40375 129.12875 7 130 C6.01 130.33 5.02 130.66 4 131 C4 131.66 4 132.32 4 133 C2.68 133.33 1.36 133.66 0 134 C0 134.66 0 135.32 0 136 C-8.29777977 140.06421866 -18.64819185 140.77949955 -27.5 137.875 C-33.88581632 134.45402697 -38.41904182 130.3024864 -42 124 C-42 123.34 -42 122.68 -42 122 C-42.66 122 -43.32 122 -44 122 C-47.68041846 111.64882309 -46.25808196 103.40004207 -42.09375 93.359375 C-40.67719531 89.00852844 -40.32564913 85.07924851 -41.75 80.6875 C-43.36822027 78.50290263 -44.40112747 77.84287758 -47 77 C-50.99069704 76.55658922 -53.36265073 76.69460347 -57 78.4375 C-59.63055938 80.68443613 -61.29234675 82.62108994 -63.3125 85.375 C-67.93157351 91.57804784 -74.29425974 96.45885195 -82 98 C-91.44128611 98.66103373 -98.63619582 97.64740103 -106.1484375 91.62890625 C-112.37737768 86.14901584 -116.55171429 79.88133334 -117.31640625 71.5546875 C-117.41481536 65.37459568 -117.20919672 59.7991414 -115 54 C-114.34 54 -113.68 54 -113 54 C-112.835 53.319375 -112.67 52.63875 -112.5 51.9375 C-109.49949723 46.06151542 -103.38076892 41.36116879 -97.3828125 38.66796875 C-89.52256544 36.46452244 -81.91436101 37.12179215 -74.5625 40.5625 C-69.56458284 43.38422686 -65.67755123 46.61562138 -62 51 C-60.7934375 52.3921875 -60.7934375 52.3921875 -59.5625 53.8125 C-58 56 -58 56 -58 58 C-54.28383968 59.1891713 -50.87902498 59.34026535 -47 59 C-44.24670979 57.20437595 -42.47372539 55.94745078 -41 53 C-40.90367103 51.18958207 -40.87018467 49.37547247 -40.875 47.5625 C-40.87242188 46.59441406 -40.86984375 45.62632813 -40.8671875 44.62890625 C-40.88786027 41.88982171 -40.88786027 41.88982171 -42 39 C-42.66 39 -43.32 39 -44 39 C-46.5870041 31.88573871 -47.67058374 23.3067633 -44.75 16.125 C-40.26327801 8.11299645 -34.61447988 0.35060646 -25.46484375 -2.56640625 C-16.70870707 -4.10670922 -8.02936722 -3.93275129 0 0 Z " fill="#FAFCFF" transform="translate(167,57)"/>
<path d="M0 0 C0.66 0.33 1.32 0.66 2 1 C0.02 2.98 -1.96 4.96 -4 7 C-4.66 6.67 -5.32 6.34 -6 6 C-2.25 1.125 -2.25 1.125 0 0 Z " fill="#3186FF" transform="translate(111,134)"/>
</svg>
